# Blender v3.4.1 OBJ File: ''
# www.blender.org
mtllib Light.mtl
o 02.001
v 130.316055 530.248413 -2.214849
v 131.264847 530.982788 -2.287508
v 131.252319 530.933533 1.293204
v 130.282043 530.234802 1.221093
v 128.751251 529.906372 -2.155136
v 128.703445 529.899658 1.146046
v 125.873329 529.458801 1.179677
v 125.899422 529.461304 -2.206797
v 97.423393 525.809082 0.281322
v 97.393341 525.809143 -1.320952
v 101.556671 526.330078 -1.411995
v 101.569595 526.329407 0.375318
v 125.963219 529.764160 -5.815389
v 128.892883 530.359863 -5.584042
v 128.752090 529.932129 -4.377558
v 125.999947 529.497864 -4.440248
v 122.049019 528.929810 -2.333185
v 121.991463 528.954407 -4.403856
v 121.803993 529.994324 -6.529301
v 125.838356 530.727966 -6.641424
v 121.935173 529.145447 -5.642298
v 117.897537 528.421326 -4.097454
v 117.811119 528.566711 -5.271065
v 117.433662 530.479858 -7.113650
v 121.635208 531.130188 -7.406751
v 117.665718 529.285400 -6.164285
v 113.683022 528.023987 -4.831965
v 113.522331 528.652100 -5.711318
v 113.254257 529.842163 -6.691036
v 109.390594 528.079102 -5.260559
v 109.117020 529.205444 -6.181687
v 113.521469 528.642517 4.913031
v 117.661636 529.262817 5.361404
v 117.437508 530.460205 6.225847
v 113.271156 529.808655 5.742091
v 109.558182 527.473694 3.576104
v 113.681580 528.009521 4.022675
v 109.387428 528.051880 4.449375
v 109.135735 529.166931 5.222432
v 105.017670 528.547424 4.729493
v 105.267097 527.512085 3.982840
v 105.558258 526.859985 2.093554
v 109.682549 527.378235 2.443308
v 105.435638 526.952209 3.155607
v 97.339828 525.829651 1.439925
v 101.458015 526.345947 1.776915
v 105.696800 526.849670 0.547601
v 97.239006 525.922668 2.290265
v 101.328987 526.442627 2.752189
v 130.423126 530.775208 -4.656918
v 129.982727 530.220276 -3.996380
v 130.383972 530.636536 3.695502
v 129.873306 530.160645 2.996139
v 128.675262 529.908447 3.394409
v 128.818817 530.267151 4.718552
v 128.866272 531.285706 5.446447
v 125.809906 530.628723 5.801472
v 125.928421 529.713623 4.935015
v 130.837296 531.710449 4.090680
v 125.971512 529.490784 3.562394
v 121.929695 529.106567 4.773531
v 121.982109 528.948730 3.538971
v 122.044052 528.929260 1.405848
v 117.897911 528.419189 3.252363
v 118.024162 528.405151 1.272027
v 118.022034 528.405518 -2.163080
v 113.934700 527.883972 1.018652
v 113.936531 527.886169 -1.895578
v 113.792618 527.901306 -3.684495
v 109.833519 527.370789 -1.687814
v 109.685959 527.381165 -3.279358
v 109.561722 527.486938 -4.391022
v 105.569046 526.864258 -2.941096
v 105.438538 526.969055 -3.982847
v 105.260666 527.559082 -4.808273
v 101.321770 526.466553 -3.610747
v 101.136902 527.105896 -4.367448
v 104.996643 528.577454 -5.666262
v 100.901001 527.956360 -5.142922
v 97.037544 526.665771 -3.910498
v 96.862427 527.333740 -4.540663
v 93.132416 526.004761 2.551672
v 97.080742 526.505554 3.026801
v 96.891342 527.314087 3.613530
v 92.982285 526.736511 3.148092
v 93.247780 525.442444 1.931964
v 93.272850 525.320251 1.180252
v 93.279823 525.286255 0.094404
v 93.278862 525.290955 -1.224875
v 93.270210 525.333130 -2.162741
v 97.310493 525.835693 -2.378281
v 93.222763 525.564392 -2.935568
v 97.206223 525.983337 -3.248152
v 93.090851 526.207336 -3.447059
v 92.979729 526.748962 -4.061621
v 101.448441 526.348389 -2.655886
v 105.704643 526.849121 -1.492078
v 109.827286 527.369263 0.819243
v 113.788460 527.899841 2.854784
v 117.809418 528.555725 4.440217
v 121.798851 529.937927 5.703442
v 121.631264 531.107239 6.511497
v 125.713165 531.750366 6.554447
v 128.980606 532.278076 6.089367
v 131.267075 532.654541 4.474668
v 131.710480 531.979248 1.336387
v 132.383209 532.906067 1.464570
v 131.696548 532.032410 -2.318686
v 132.353363 532.898560 -2.427867
v 130.825653 531.837830 -4.999793
v 131.285400 532.676025 -5.380649
v 128.907227 531.420715 -6.277221
v 129.030396 532.308228 -6.964426
v 125.758232 531.778748 -7.451530
v 101.152962 527.020325 3.519772
v 100.922005 527.937927 4.206988
vt 0.516459 0.820393
vt 0.531457 0.816101
vt 0.530692 0.871293
vt 0.515819 0.871282
vt 0.496621 0.824542
vt 0.495784 0.872201
vt 0.459867 0.875843
vt 0.460312 0.827545
vt 0.066281 0.870809
vt 0.065906 0.831628
vt 0.124599 0.832201
vt 0.124696 0.870709
vt 0.464019 0.775497
vt 0.501337 0.774163
vt 0.497510 0.792813
vt 0.462698 0.795625
vt 0.409660 0.825135
vt 0.409768 0.794876
vt 0.410801 0.758215
vt 0.466115 0.756820
vt 0.410134 0.776447
vt 0.353821 0.796605
vt 0.353445 0.778373
vt 0.352579 0.736472
vt 0.411591 0.736472
vt 0.353215 0.760490
vt 0.295877 0.780660
vt 0.295174 0.762576
vt 0.293707 0.736472
vt 0.237116 0.763299
vt 0.235381 0.736472
vt 0.294209 0.945081
vt 0.352203 0.946008
vt 0.351513 0.969402
vt 0.292784 0.969402
vt 0.237345 0.925253
vt 0.295147 0.926755
vt 0.236176 0.944374
vt 0.234609 0.969402
vt 0.176787 0.969402
vt 0.178321 0.943623
vt 0.180844 0.902661
vt 0.238762 0.904757
vt 0.179420 0.923681
vt 0.065163 0.899258
vt 0.123163 0.901040
vt 0.182779 0.872406
vt 0.064031 0.920451
vt 0.121657 0.922450
vt 0.520240 0.783598
vt 0.512448 0.795660
vt 0.518408 0.907353
vt 0.510553 0.897272
vt 0.495994 0.904306
vt 0.499416 0.923426
vt 0.505564 0.940449
vt 0.464695 0.948543
vt 0.462825 0.929918
vt 0.531256 0.917524
vt 0.461881 0.909888
vt 0.409316 0.929137
vt 0.409120 0.910819
vt 0.409276 0.879636
vt 0.353297 0.909369
vt 0.354767 0.878914
vt 0.354907 0.826280
vt 0.298149 0.877021
vt 0.298407 0.829207
vt 0.296771 0.799754
vt 0.241030 0.831059
vt 0.239226 0.802587
vt 0.237992 0.782470
vt 0.181305 0.804327
vt 0.179945 0.783665
vt 0.179028 0.763384
vt 0.121941 0.784232
vt 0.121058 0.762270
vt 0.177304 0.736472
vt 0.119574 0.736472
vt 0.063465 0.759819
vt 0.062598 0.736472
vt 0.007871 0.944834
vt 0.063344 0.944035
vt 0.062692 0.969402
vt 0.007871 0.969402
vt 0.007871 0.921013
vt 0.007871 0.899648
vt 0.007871 0.869223
vt 0.007871 0.832283
vt 0.007871 0.805991
vt 0.064875 0.805628
vt 0.007871 0.783326
vt 0.063955 0.783751
vt 0.007871 0.759879
vt 0.007871 0.736472
vt 0.123232 0.805259
vt 0.183003 0.832691
vt 0.240756 0.875691
vt 0.296212 0.907309
vt 0.352671 0.927872
vt 0.409740 0.947838
vt 0.410528 0.969402
vt 0.467867 0.969402
vt 0.513124 0.957733
vt 0.543887 0.927539
vt 0.545670 0.872117
vt 0.561142 0.873907
vt 0.546254 0.810878
vt 0.561142 0.804845
vt 0.532990 0.770046
vt 0.545033 0.757261
vt 0.507607 0.754932
vt 0.514653 0.736472
vt 0.469313 0.736472
vt 0.120565 0.943732
vt 0.119302 0.969402
vn 0.4279 -0.9029 -0.0404
vn 0.7864 -0.6083 -0.1071
vn 0.7724 -0.6287 0.0902
vn 0.4095 -0.9119 0.0281
vn 0.1856 -0.9826 -0.0069
vn 0.1815 -0.9834 0.0032
vn 0.1450 -0.9894 0.0042
vn 0.1453 -0.9894 -0.0056
vn 0.1239 -0.9922 0.0121
vn 0.1235 -0.9922 -0.0189
vn 0.1236 -0.9922 -0.0137
vn 0.1239 -0.9922 0.0107
vn 0.1612 -0.8418 -0.5151
vn 0.3505 -0.7558 -0.5531
vn 0.2380 -0.9586 -0.1565
vn 0.1532 -0.9817 -0.1134
vn 0.1324 -0.9912 -0.0069
vn 0.1306 -0.9876 -0.0871
vn 0.0675 -0.6618 -0.7466
vn 0.1494 -0.6169 -0.7727
vn 0.1055 -0.8872 -0.4491
vn 0.1222 -0.9896 -0.0757
vn 0.0883 -0.9120 -0.4005
vn 0.0254 -0.6198 -0.7844
vn 0.0627 -0.6076 -0.7918
vn 0.0390 -0.6985 -0.7145
vn 0.0838 -0.9261 -0.3680
vn 0.0280 -0.7230 -0.6903
vn 0.0084 -0.6305 -0.7761
vn 0.0231 -0.7325 -0.6803
vn 0.0008 -0.6363 -0.7715
vn 0.0217 -0.7039 0.7100
vn 0.0350 -0.6870 0.7258
vn 0.0140 -0.5782 0.8158
vn -0.0066 -0.5796 0.8149
vn 0.0844 -0.9355 0.3432
vn 0.0858 -0.9297 0.3581
vn 0.0178 -0.7117 0.7023
vn -0.0123 -0.5778 0.8161
vn -0.0151 -0.5868 0.8096
vn 0.0134 -0.7127 0.7014
vn 0.1192 -0.9911 0.0598
vn 0.1200 -0.9911 0.0578
vn 0.0807 -0.9335 0.3493
vn 0.1176 -0.9900 0.0776
vn 0.1186 -0.9907 0.0665
vn 0.1242 -0.9922 0.0091
vn 0.0722 -0.9153 0.3962
vn 0.0757 -0.9263 0.3692
vn 0.6506 -0.6557 -0.3830
vn 0.4227 -0.8906 -0.1675
vn 0.6267 -0.6997 0.3430
vn 0.3836 -0.9146 0.1276
vn 0.2217 -0.9676 0.1206
vn 0.3397 -0.7939 0.5043
vn 0.3875 -0.5499 0.7399
vn 0.1444 -0.6091 0.7798
vn 0.1606 -0.8637 0.4778
vn 0.7244 -0.5062 0.4680
vn 0.1523 -0.9840 0.0920
vn 0.1074 -0.8996 0.4233
vn 0.1306 -0.9886 0.0747
vn 0.1326 -0.9912 0.0062
vn 0.1225 -0.9902 0.0675
vn 0.1271 -0.9919 0.0076
vn 0.1271 -0.9919 -0.0084
vn 0.1248 -0.9921 0.0083
vn 0.1248 -0.9921 -0.0090
vn 0.1197 -0.9905 -0.0677
vn 0.1243 -0.9922 -0.0096
vn 0.1194 -0.9907 -0.0648
vn 0.0824 -0.9310 -0.3557
vn 0.1184 -0.9906 -0.0693
vn 0.0772 -0.9256 -0.3705
vn 0.0174 -0.7295 -0.6837
vn 0.0683 -0.9081 -0.4131
vn 0.0088 -0.7155 -0.6985
vn -0.0018 -0.6493 -0.7605
vn -0.0043 -0.6703 -0.7421
vn 0.0046 -0.6974 -0.7166
vn 0.0032 -0.6996 -0.7145
vn 0.0076 -0.6894 0.7244
vn 0.0049 -0.6943 0.7196
vn -0.0173 -0.6040 0.7968
vn -0.0110 -0.6110 0.7915
vn 0.0710 -0.9083 0.4122
vn 0.1168 -0.9895 0.0856
vn 0.1241 -0.9922 0.0133
vn 0.1239 -0.9921 -0.0211
vn 0.1093 -0.9843 -0.1383
vn 0.1119 -0.9869 -0.1161
vn 0.0492 -0.8543 -0.5175
vn 0.0560 -0.8758 -0.4794
vn 0.0057 -0.6896 -0.7242
vn 0.0126 -0.7179 -0.6961
vn 0.1161 -0.9897 -0.0839
vn 0.1241 -0.9922 -0.0107
vn 0.1242 -0.9922 0.0086
vn 0.1205 -0.9908 0.0618
vn 0.0903 -0.9185 0.3850
vn 0.0653 -0.6547 0.7530
vn 0.0533 -0.5645 0.8237
vn 0.1423 -0.5491 0.8236
vn 0.3885 -0.5330 0.7516
vn 0.7066 -0.5381 0.4596
vn 0.8623 -0.4925 0.1178
vn 0.8137 -0.5704 0.1117
vn 0.8589 -0.4957 -0.1289
vn 0.7990 -0.5896 -0.1182
vn 0.7151 -0.5151 -0.4725
vn 0.6796 -0.5883 -0.4382
vn 0.3847 -0.5590 -0.7345
vn 0.3829 -0.5932 -0.7082
vn 0.1531 -0.6028 -0.7830
vn 0.0061 -0.7050 0.7092
vn -0.0202 -0.5959 0.8028
usemtl 02_1
s 1
f 1/1/1 2/2/2 3/3/3 4/4/4
f 5/5/5 1/1/1 4/4/4 6/6/6
f 5/5/5 6/6/6 7/7/7 8/8/8
f 9/9/9 10/10/10 11/11/11 12/12/12
f 13/13/13 14/14/14 15/15/15 16/16/16
f 15/15/15 5/5/5 8/8/8 16/16/16
f 8/8/8 17/17/17 18/18/18 16/16/16
f 19/19/19 20/20/20 13/13/13 21/21/21
f 13/13/13 16/16/16 18/18/18 21/21/21
f 18/18/18 22/22/22 23/23/23 21/21/21
f 24/24/24 25/25/25 19/19/19 26/26/26
f 19/19/19 21/21/21 23/23/23 26/26/26
f 23/23/23 27/27/27 28/28/28 26/26/26
f 24/24/24 26/26/26 28/28/28 29/29/29
f 28/28/28 30/30/30 31/31/31 29/29/29
f 32/32/32 33/33/33 34/34/34 35/35/35
f 36/36/36 37/37/37 32/32/32 38/38/38
f 32/32/32 35/35/35 39/39/39 38/38/38
f 39/39/39 40/40/40 41/41/41 38/38/38
f 42/42/42 43/43/43 36/36/36 44/44/44
f 36/36/36 38/38/38 41/41/41 44/44/44
f 45/45/45 9/9/9 12/12/12 46/46/46
f 12/12/12 47/47/47 42/42/42 46/46/46
f 48/48/48 45/45/45 46/46/46 49/49/49
f 50/50/50 2/2/2 1/1/1 51/51/51
f 1/1/1 5/5/5 15/15/15 51/51/51
f 15/15/15 14/14/14 50/50/50 51/51/51
f 4/4/4 3/3/3 52/52/52 53/53/53
f 54/54/54 6/6/6 4/4/4 53/53/53
f 52/52/52 55/55/55 54/54/54 53/53/53
f 56/56/56 57/57/57 58/58/58 55/55/55
f 52/52/52 59/59/59 56/56/56 55/55/55
f 58/58/58 60/60/60 54/54/54 55/55/55
f 58/58/58 61/61/61 62/62/62 60/60/60
f 7/7/7 6/6/6 54/54/54 60/60/60
f 62/62/62 63/63/63 7/7/7 60/60/60
f 62/62/62 64/64/64 65/65/65 63/63/63
f 17/17/17 8/8/8 7/7/7 63/63/63
f 65/65/65 66/66/66 17/17/17 63/63/63
f 65/65/65 67/67/67 68/68/68 66/66/66
f 22/22/22 18/18/18 17/17/17 66/66/66
f 68/68/68 69/69/69 22/22/22 66/66/66
f 68/68/68 70/70/70 71/71/71 69/69/69
f 27/27/27 23/23/23 22/22/22 69/69/69
f 71/71/71 72/72/72 27/27/27 69/69/69
f 71/71/71 73/73/73 74/74/74 72/72/72
f 30/30/30 28/28/28 27/27/27 72/72/72
f 74/74/74 75/75/75 30/30/30 72/72/72
f 74/74/74 76/76/76 77/77/77 75/75/75
f 78/78/78 31/31/31 30/30/30 75/75/75
f 77/77/77 79/79/79 78/78/78 75/75/75
f 77/77/77 80/80/80 81/81/81 79/79/79
f 82/82/82 83/83/83 84/84/84 85/85/85
f 86/86/86 48/48/48 83/83/83 82/82/82
f 87/87/87 45/45/45 48/48/48 86/86/86
f 88/88/88 9/9/9 45/45/45 87/87/87
f 89/89/89 10/10/10 9/9/9 88/88/88
f 90/90/90 91/91/91 10/10/10 89/89/89
f 92/92/92 93/93/93 91/91/91 90/90/90
f 94/94/94 80/80/80 93/93/93 92/92/92
f 95/95/95 81/81/81 80/80/80 94/94/94
f 76/76/76 96/96/96 91/91/91 93/93/93
f 80/80/80 77/77/77 76/76/76 93/93/93
f 11/11/11 10/10/10 91/91/91 96/96/96
f 73/73/73 97/97/97 11/11/11 96/96/96
f 76/76/76 74/74/74 73/73/73 96/96/96
f 47/47/47 12/12/12 11/11/11 97/97/97
f 70/70/70 98/98/98 47/47/47 97/97/97
f 73/73/73 71/71/71 70/70/70 97/97/97
f 43/43/43 42/42/42 47/47/47 98/98/98
f 67/67/67 99/99/99 43/43/43 98/98/98
f 70/70/70 68/68/68 67/67/67 98/98/98
f 37/37/37 36/36/36 43/43/43 99/99/99
f 64/64/64 100/100/100 37/37/37 99/99/99
f 67/67/67 65/65/65 64/64/64 99/99/99
f 33/33/33 32/32/32 37/37/37 100/100/100
f 61/61/61 101/101/101 33/33/33 100/100/100
f 64/64/64 62/62/62 61/61/61 100/100/100
f 102/102/102 34/34/34 33/33/33 101/101/101
f 57/57/57 103/103/103 102/102/102 101/101/101
f 61/61/61 58/58/58 57/57/57 101/101/101
f 57/57/57 56/56/56 104/104/104 103/103/103
f 56/56/56 59/59/59 105/105/105 104/104/104
f 59/59/59 106/106/106 107/107/107 105/105/105
f 108/108/108 109/109/109 107/107/107 106/106/106
f 3/3/3 2/2/2 108/108/108 106/106/106
f 59/59/59 52/52/52 3/3/3 106/106/106
f 110/110/110 111/111/111 109/109/109 108/108/108
f 2/2/2 50/50/50 110/110/110 108/108/108
f 112/112/112 113/113/113 111/111/111 110/110/110
f 50/50/50 14/14/14 112/112/112 110/110/110
f 14/14/14 13/13/13 20/20/20 112/112/112
f 20/20/20 114/114/114 113/113/113 112/112/112
f 20/20/20 19/19/19 25/25/25 114/114/114
f 115/115/115 41/41/41 40/40/40 116/116/116
f 84/84/84 83/83/83 115/115/115 116/116/116
f 49/49/49 44/44/44 41/41/41 115/115/115
f 83/83/83 48/48/48 49/49/49 115/115/115
f 46/46/46 42/42/42 44/44/44 49/49/49
