mtllib pallets.mtl
o pallets.obj
v -0.161460 0.857483 -2.931581
v -0.673612 0.857483 -2.931581
v -0.161460 0.948535 -2.931581
v -0.673612 0.948535 -2.931581
v -0.161460 0.948535 2.842439
v -0.673612 0.948535 2.842439
v -0.161460 0.857483 2.842439
v -0.673612 0.857483 2.842439
v 2.998764 0.755809 -2.304365
v 2.998764 0.755809 -2.924539
v 2.998764 0.846860 -2.304365
v 2.998764 0.846860 -2.924539
v -0.685970 0.846860 -2.304365
v -0.685970 0.846860 -2.924539
v -0.685970 0.755809 -2.304365
v -0.685970 0.755809 -2.924539
v -0.671018 0.325806 -2.290863
v -0.158866 0.325806 -2.290863
v -0.671018 0.744794 -2.290863
v -0.158866 0.744794 -2.290863
v -0.671018 0.744794 -2.925977
v -0.158866 0.744794 -2.925977
v -0.671018 0.325806 -2.925977
v -0.158866 0.325806 -2.925977
v 0.867772 0.854570 2.842439
v 1.379924 0.854570 2.842439
v 0.867772 0.945622 2.842439
v 1.379924 0.945622 2.842439
v 0.867772 0.945622 -2.931581
v 1.379924 0.945622 -2.931581
v 0.867772 0.854570 -2.931581
v 1.379924 0.854570 -2.931581
v 0.057249 0.851419 2.842439
v 0.569401 0.851419 2.842439
v 0.057249 0.942471 2.842439
v 0.569401 0.942471 2.842439
v 0.057249 0.942471 -2.931581
v 0.569401 0.942471 -2.931581
v 0.057249 0.851419 -2.931581
v 0.569401 0.851419 -2.931581
v 0.854394 0.325806 -2.290863
v 1.366547 0.325806 -2.290863
v 0.854394 0.744794 -2.290863
v 1.366547 0.744794 -2.290863
v 0.854394 0.744794 -2.925977
v 1.366547 0.744794 -2.925977
v 0.854394 0.325806 -2.925977
v 1.366547 0.325806 -2.925977
v 2.495920 0.325806 -2.290863
v 3.008072 0.325806 -2.290863
v 2.495920 0.744794 -2.290863
v 3.008072 0.744794 -2.290863
v 2.495920 0.744794 -2.925977
v 3.008072 0.744794 -2.925977
v 2.495920 0.325806 -2.925977
v 3.008072 0.325806 -2.925977
v -0.671018 0.325806 2.837655
v -0.158866 0.325806 2.837655
v -0.671018 0.744794 2.837655
v -0.158866 0.744794 2.837655
v -0.671018 0.744794 2.202540
v -0.158866 0.744794 2.202540
v -0.671018 0.325806 2.202540
v -0.158866 0.325806 2.202540
v 2.998764 0.755809 2.824152
v 2.998764 0.755809 2.203979
v 2.998764 0.846860 2.824152
v 2.998764 0.846860 2.203979
v -0.685970 0.846860 2.824152
v -0.685970 0.846860 2.203979
v -0.685970 0.755809 2.824152
v -0.685970 0.755809 2.203979
v 0.854394 0.325806 2.837655
v 1.366547 0.325806 2.837655
v 0.854394 0.744794 2.837655
v 1.366547 0.744794 2.837655
v 0.854394 0.744794 2.202540
v 1.366547 0.744794 2.202540
v 0.854394 0.325806 2.202540
v 1.366547 0.325806 2.202540
v 2.495920 0.325806 2.837655
v 3.008072 0.325806 2.837655
v 2.495920 0.744794 2.837655
v 3.008072 0.744794 2.837655
v 2.495920 0.744794 2.202540
v 3.008072 0.744794 2.202540
v 2.495920 0.325806 2.202540
v 3.008072 0.325806 2.202540
v -0.671018 0.325806 0.191221
v -0.158866 0.325806 0.191221
v -0.671018 0.744794 0.191221
v -0.158866 0.744794 0.191221
v -0.671018 0.744794 -0.443894
v -0.158866 0.744794 -0.443894
v -0.671018 0.325806 -0.443894
v -0.158866 0.325806 -0.443894
v 2.998764 0.755809 0.177718
v 2.998764 0.755809 -0.442455
v 2.998764 0.846860 0.177718
v 2.998764 0.846860 -0.442455
v -0.685970 0.846860 0.177718
v -0.685970 0.846860 -0.442455
v -0.685970 0.755809 0.177718
v -0.685970 0.755809 -0.442455
v 0.854394 0.325806 0.191221
v 1.366547 0.325806 0.191221
v 0.854394 0.744794 0.191221
v 1.366547 0.744794 0.191221
v 0.854394 0.744794 -0.443894
v 1.366547 0.744794 -0.443894
v 0.854394 0.325806 -0.443894
v 1.366547 0.325806 -0.443894
v 2.495920 0.325806 0.191221
v 3.008072 0.325806 0.191221
v 2.495920 0.744794 0.191221
v 3.008072 0.744794 0.191221
v 2.495920 0.744794 -0.443894
v 3.008072 0.744794 -0.443894
v 2.495920 0.325806 -0.443894
v 3.008072 0.325806 -0.443894
v 2.998764 0.227309 -2.304365
v 2.998764 0.227309 -2.924539
v 2.998764 0.318361 -2.304365
v 2.998764 0.318361 -2.924539
v -0.685970 0.318361 -2.304365
v -0.685970 0.318361 -2.924539
v -0.685970 0.227309 -2.304365
v -0.685970 0.227309 -2.924539
v 2.998764 0.227309 0.177718
v 2.998764 0.227309 -0.442455
v 2.998764 0.318361 0.177718
v 2.998764 0.318361 -0.442455
v -0.685970 0.318361 0.177718
v -0.685970 0.318361 -0.442455
v -0.685970 0.227309 0.177718
v -0.685970 0.227309 -0.442455
v 2.998764 0.227309 2.824152
v 2.998764 0.227309 2.203979
v 2.998764 0.318361 2.824152
v 2.998764 0.318361 2.203979
v -0.685970 0.318361 2.824152
v -0.685970 0.318361 2.203979
v -0.685970 0.227309 2.824152
v -0.685970 0.227309 2.203979
v 1.681597 0.857483 2.842439
v 2.193748 0.857483 2.842439
v 1.681597 0.948535 2.842439
v 2.193748 0.948535 2.842439
v 1.681597 0.948535 -2.931581
v 2.193748 0.948535 -2.931581
v 1.681597 0.857483 -2.931581
v 2.193748 0.857483 -2.931581
v 3.011215 0.851419 -2.931581
v 2.499063 0.851419 -2.931581
v 3.011215 0.942471 -2.931581
v 2.499063 0.942471 -2.931581
v 3.011215 0.942471 2.842439
v 2.499063 0.942471 2.842439
v 3.011215 0.851419 2.842439
v 2.499063 0.851419 2.842439
vn 0.577350 -0.577350 -0.577350
vn -0.577350 -0.577350 -0.577350
vn 0.577350 0.577350 -0.577350
vn -0.577350 0.577350 -0.577350
vn 0.577350 0.577350 0.577350
vn -0.577350 0.577350 0.577350
vn 0.577350 -0.577350 0.577350
vn -0.577350 -0.577350 0.577350
vn 0.577350 -0.577350 0.577350
vn 0.577350 -0.577350 -0.577350
vn 0.577350 0.577350 0.577350
vn 0.577350 0.577350 -0.577350
vn -0.577350 0.577350 0.577350
vn -0.577350 0.577350 -0.577350
vn -0.577350 -0.577350 0.577350
vn -0.577350 -0.577350 -0.577350
vn -0.577350 -0.577350 0.577350
vn 0.577350 -0.577350 0.577350
vn -0.577350 0.577350 0.577350
vn 0.577350 0.577350 0.577350
vn -0.577350 0.577350 -0.577350
vn 0.577350 0.577350 -0.577350
vn -0.577350 -0.577350 -0.577350
vn 0.577350 -0.577350 -0.577350
vn -0.577350 -0.577350 0.577350
vn 0.577350 -0.577350 0.577350
vn -0.577350 0.577350 0.577350
vn 0.577350 0.577350 0.577350
vn -0.577350 0.577350 -0.577350
vn 0.577350 0.577350 -0.577350
vn -0.577350 -0.577350 -0.577350
vn 0.577350 -0.577350 -0.577350
vn -0.577350 -0.577350 0.577350
vn 0.577350 -0.577350 0.577350
vn -0.577350 0.577350 0.577350
vn 0.577350 0.577350 0.577350
vn -0.577350 0.577350 -0.577350
vn 0.577350 0.577350 -0.577350
vn -0.577350 -0.577350 -0.577350
vn 0.577350 -0.577350 -0.577350
vn -0.577350 -0.577350 0.577350
vn 0.577350 -0.577350 0.577350
vn -0.577350 0.577350 0.577350
vn 0.577350 0.577350 0.577350
vn -0.577350 0.577350 -0.577350
vn 0.577350 0.577350 -0.577350
vn -0.577350 -0.577350 -0.577350
vn 0.577350 -0.577350 -0.577350
vn -0.577350 -0.577350 0.577350
vn 0.577350 -0.577350 0.577350
vn -0.577350 0.577350 0.577350
vn 0.577350 0.577350 0.577350
vn -0.577350 0.577350 -0.577350
vn 0.577350 0.577350 -0.577350
vn -0.577350 -0.577350 -0.577350
vn 0.577350 -0.577350 -0.577350
vn -0.577350 -0.577350 0.577350
vn 0.577350 -0.577350 0.577350
vn -0.577350 0.577350 0.577350
vn 0.577350 0.577350 0.577350
vn -0.577350 0.577350 -0.577350
vn 0.577350 0.577350 -0.577350
vn -0.577350 -0.577350 -0.577350
vn 0.577350 -0.577350 -0.577350
vn 0.577350 -0.577350 0.577350
vn 0.577350 -0.577350 -0.577350
vn 0.577350 0.577350 0.577350
vn 0.577350 0.577350 -0.577350
vn -0.577350 0.577350 0.577350
vn -0.577350 0.577350 -0.577350
vn -0.577350 -0.577350 0.577350
vn -0.577350 -0.577350 -0.577350
vn -0.577350 -0.577350 0.577350
vn 0.577350 -0.577350 0.577350
vn -0.577350 0.577350 0.577350
vn 0.577350 0.577350 0.577350
vn -0.577350 0.577350 -0.577350
vn 0.577350 0.577350 -0.577350
vn -0.577350 -0.577350 -0.577350
vn 0.577350 -0.577350 -0.577350
vn -0.577350 -0.577350 0.577350
vn 0.577350 -0.577350 0.577350
vn -0.577350 0.577350 0.577350
vn 0.577350 0.577350 0.577350
vn -0.577350 0.577350 -0.577350
vn 0.577350 0.577350 -0.577350
vn -0.577350 -0.577350 -0.577350
vn 0.577350 -0.577350 -0.577350
vn -0.577350 -0.577350 0.577350
vn 0.577350 -0.577350 0.577350
vn -0.577350 0.577350 0.577350
vn 0.577350 0.577350 0.577350
vn -0.577350 0.577350 -0.577350
vn 0.577350 0.577350 -0.577350
vn -0.577350 -0.577350 -0.577350
vn 0.577350 -0.577350 -0.577350
vn 0.577350 -0.577350 0.577350
vn 0.577350 -0.577350 -0.577350
vn 0.577350 0.577350 0.577350
vn 0.577350 0.577350 -0.577350
vn -0.577350 0.577350 0.577350
vn -0.577350 0.577350 -0.577350
vn -0.577350 -0.577350 0.577350
vn -0.577350 -0.577350 -0.577350
vn -0.577350 -0.577350 0.577350
vn 0.577350 -0.577350 0.577350
vn -0.577350 0.577350 0.577350
vn 0.577350 0.577350 0.577350
vn -0.577350 0.577350 -0.577350
vn 0.577350 0.577350 -0.577350
vn -0.577350 -0.577350 -0.577350
vn 0.577350 -0.577350 -0.577350
vn -0.577350 -0.577350 0.577350
vn 0.577350 -0.577350 0.577350
vn -0.577350 0.577350 0.577350
vn 0.577350 0.577350 0.577350
vn -0.577350 0.577350 -0.577350
vn 0.577350 0.577350 -0.577350
vn -0.577350 -0.577350 -0.577350
vn 0.577350 -0.577350 -0.577350
vn 0.577350 -0.577350 0.577350
vn 0.577350 -0.577350 -0.577350
vn 0.577350 0.577350 0.577350
vn 0.577350 0.577350 -0.577350
vn -0.577350 0.577350 0.577350
vn -0.577350 0.577350 -0.577350
vn -0.577350 -0.577350 0.577350
vn -0.577350 -0.577350 -0.577350
vn 0.577350 -0.577350 0.577350
vn 0.577350 -0.577350 -0.577350
vn 0.577350 0.577350 0.577350
vn 0.577350 0.577350 -0.577350
vn -0.577350 0.577350 0.577350
vn -0.577350 0.577350 -0.577350
vn -0.577350 -0.577350 0.577350
vn -0.577350 -0.577350 -0.577350
vn 0.577350 -0.577350 0.577350
vn 0.577350 -0.577350 -0.577350
vn 0.577350 0.577350 0.577350
vn 0.577350 0.577350 -0.577350
vn -0.577350 0.577350 0.577350
vn -0.577350 0.577350 -0.577350
vn -0.577350 -0.577350 0.577350
vn -0.577350 -0.577350 -0.577350
vn -0.577350 -0.577350 0.577350
vn 0.577350 -0.577350 0.577350
vn -0.577350 0.577350 0.577350
vn 0.577350 0.577350 0.577350
vn -0.577350 0.577350 -0.577350
vn 0.577350 0.577350 -0.577350
vn -0.577350 -0.577350 -0.577350
vn 0.577350 -0.577350 -0.577350
vn 0.577350 -0.577350 -0.577350
vn -0.577350 -0.577350 -0.577350
vn 0.577350 0.577350 -0.577350
vn -0.577350 0.577350 -0.577350
vn 0.577350 0.577350 0.577350
vn -0.577350 0.577350 0.577350
vn 0.577350 -0.577350 0.577350
vn -0.577350 -0.577350 0.577350
vt 0.143663 0.005524
vt 0.227719 0.005524
vt 0.227719 0.020467
vt 0.143664 0.020468
vt 0.227722 0.968112
vt 0.143666 0.968111
vt 0.227722 0.983056
vt 0.143665 0.983055
vt 0.566359 0.004628
vt 0.650412 0.004628
vt 0.650412 0.952238
vt 0.566359 0.952238
vt 0.242663 0.020467
vt 0.242665 0.968112
vt 0.128722 0.968111
vt 0.128736 0.020467
vt 0.675375 0.623593
vt 0.777155 0.623593
vt 0.777155 0.638536
vt 0.675375 0.638536
vt 0.801539 0.003976
vt 0.903320 0.003976
vt 0.903320 0.608701
vt 0.801539 0.608701
vt 0.675375 0.003924
vt 0.777155 0.003925
vt 0.777155 0.018868
vt 0.675375 0.018868
vt 0.792098 0.018868
vt 0.792098 0.623593
vt 0.660431 0.623593
vt 0.660431 0.018868
vt 0.911971 0.193707
vt 0.911972 0.109654
vt 0.980734 0.109654
vt 0.980734 0.193707
vt 0.911971 0.394241
vt 0.996024 0.394241
vt 0.996024 0.498474
vt 0.911971 0.498474
vt 0.980734 0.297939
vt 0.980734 0.381992
vt 0.911972 0.381992
vt 0.911972 0.297939
vt 0.911971 0.509665
vt 0.996024 0.509665
vt 0.996024 0.613897
vt 0.911971 0.613897
vt 0.911972 0.005421
vt 0.980734 0.005421
vt 0.018917 0.005524
vt 0.102973 0.005524
vt 0.102973 0.020467
vt 0.018917 0.020468
vt 0.102976 0.968112
vt 0.018920 0.968111
vt 0.102976 0.983056
vt 0.018919 0.983055
vt 0.378216 0.004628
vt 0.462268 0.004628
vt 0.462268 0.952238
vt 0.378215 0.952238
vt 0.117916 0.020467
vt 0.117919 0.968112
vt 0.003976 0.968111
vt 0.003990 0.020467
vt 0.268409 0.005524
vt 0.352466 0.005524
vt 0.352465 0.020467
vt 0.268410 0.020468
vt 0.352468 0.968112
vt 0.268412 0.968111
vt 0.352469 0.983056
vt 0.268412 0.983055
vt 0.472288 0.004628
vt 0.556340 0.004628
vt 0.556340 0.952238
vt 0.472287 0.952238
vt 0.367409 0.020467
vt 0.367412 0.968112
vt 0.253469 0.968111
vt 0.253482 0.020467
vt 0.911971 0.193707
vt 0.911972 0.109654
vt 0.980734 0.109654
vt 0.980734 0.193707
vt 0.911971 0.394241
vt 0.996024 0.394241
vt 0.996024 0.498474
vt 0.911971 0.498474
vt 0.980734 0.297939
vt 0.980734 0.381992
vt 0.911972 0.381992
vt 0.911972 0.297939
vt 0.911971 0.509665
vt 0.996024 0.509665
vt 0.996024 0.613897
vt 0.911971 0.613897
vt 0.911972 0.005421
vt 0.980734 0.005421
vt 0.911971 0.193707
vt 0.911972 0.109654
vt 0.980734 0.109654
vt 0.980734 0.193707
vt 0.911971 0.394241
vt 0.996024 0.394241
vt 0.996024 0.498474
vt 0.911971 0.498474
vt 0.980734 0.297939
vt 0.980734 0.381992
vt 0.911972 0.381992
vt 0.911972 0.297939
vt 0.911971 0.509665
vt 0.996024 0.509665
vt 0.996024 0.613897
vt 0.911971 0.613897
vt 0.911972 0.005421
vt 0.980734 0.005421
vt 0.911971 0.193707
vt 0.911972 0.109654
vt 0.980734 0.109654
vt 0.980734 0.193707
vt 0.911971 0.394241
vt 0.996024 0.394241
vt 0.996024 0.498474
vt 0.911971 0.498474
vt 0.980734 0.297939
vt 0.980734 0.381992
vt 0.911972 0.381992
vt 0.911972 0.297939
vt 0.911971 0.509665
vt 0.996024 0.509665
vt 0.996024 0.613897
vt 0.911971 0.613897
vt 0.911972 0.005421
vt 0.980734 0.005421
vt 0.675375 0.623593
vt 0.777155 0.623593
vt 0.777155 0.638536
vt 0.675375 0.638536
vt 0.801539 0.003976
vt 0.903320 0.003976
vt 0.903320 0.608701
vt 0.801539 0.608701
vt 0.675375 0.003924
vt 0.777155 0.003925
vt 0.777155 0.018868
vt 0.675375 0.018868
vt 0.792098 0.018868
vt 0.792098 0.623593
vt 0.660431 0.623593
vt 0.660431 0.018868
vt 0.911971 0.193707
vt 0.911972 0.109654
vt 0.980734 0.109654
vt 0.980734 0.193707
vt 0.911971 0.394241
vt 0.996024 0.394241
vt 0.996024 0.498474
vt 0.911971 0.498474
vt 0.980734 0.297939
vt 0.980734 0.381992
vt 0.911972 0.381992
vt 0.911972 0.297939
vt 0.911971 0.509665
vt 0.996024 0.509665
vt 0.996024 0.613897
vt 0.911971 0.613897
vt 0.911972 0.005421
vt 0.980734 0.005421
vt 0.911971 0.193707
vt 0.911972 0.109654
vt 0.980734 0.109654
vt 0.980734 0.193707
vt 0.911971 0.394241
vt 0.996024 0.394241
vt 0.996024 0.498474
vt 0.911971 0.498474
vt 0.980734 0.297939
vt 0.980734 0.381992
vt 0.911972 0.381992
vt 0.911972 0.297939
vt 0.911971 0.509665
vt 0.996024 0.509665
vt 0.996024 0.613897
vt 0.911971 0.613897
vt 0.911972 0.005421
vt 0.980734 0.005421
vt 0.911971 0.193707
vt 0.911972 0.109654
vt 0.980734 0.109654
vt 0.980734 0.193707
vt 0.911971 0.394241
vt 0.996024 0.394241
vt 0.996024 0.498474
vt 0.911971 0.498474
vt 0.980734 0.297939
vt 0.980734 0.381992
vt 0.911972 0.381992
vt 0.911972 0.297939
vt 0.911971 0.509665
vt 0.996024 0.509665
vt 0.996024 0.613897
vt 0.911971 0.613897
vt 0.911972 0.005421
vt 0.980734 0.005421
vt 0.675375 0.623593
vt 0.777155 0.623593
vt 0.777155 0.638536
vt 0.675375 0.638536
vt 0.801539 0.003976
vt 0.903320 0.003976
vt 0.903320 0.608701
vt 0.801539 0.608701
vt 0.675375 0.003924
vt 0.777155 0.003925
vt 0.777155 0.018868
vt 0.675375 0.018868
vt 0.792098 0.018868
vt 0.792098 0.623593
vt 0.660431 0.623593
vt 0.660431 0.018868
vt 0.911971 0.193707
vt 0.911972 0.109654
vt 0.980734 0.109654
vt 0.980734 0.193707
vt 0.911971 0.394241
vt 0.996024 0.394241
vt 0.996024 0.498474
vt 0.911971 0.498474
vt 0.980734 0.297939
vt 0.980734 0.381992
vt 0.911972 0.381992
vt 0.911972 0.297939
vt 0.911971 0.509665
vt 0.996024 0.509665
vt 0.996024 0.613897
vt 0.911971 0.613897
vt 0.911972 0.005421
vt 0.980734 0.005421
vt 0.911971 0.193707
vt 0.911972 0.109654
vt 0.980734 0.109654
vt 0.980734 0.193707
vt 0.911971 0.394241
vt 0.996024 0.394241
vt 0.996024 0.498474
vt 0.911971 0.498474
vt 0.980734 0.297939
vt 0.980734 0.381992
vt 0.911972 0.381992
vt 0.911972 0.297939
vt 0.911971 0.509665
vt 0.996024 0.509665
vt 0.996024 0.613897
vt 0.911971 0.613897
vt 0.911972 0.005421
vt 0.980734 0.005421
vt 0.675375 0.623593
vt 0.777155 0.623593
vt 0.777155 0.638536
vt 0.675375 0.638536
vt 0.801539 0.003976
vt 0.903320 0.003976
vt 0.903320 0.608701
vt 0.801539 0.608701
vt 0.675375 0.003924
vt 0.777155 0.003925
vt 0.777155 0.018868
vt 0.675375 0.018868
vt 0.792098 0.018868
vt 0.792098 0.623593
vt 0.660431 0.623593
vt 0.660431 0.018868
vt 0.675375 0.623593
vt 0.777155 0.623593
vt 0.777155 0.638536
vt 0.675375 0.638536
vt 0.801539 0.003976
vt 0.903320 0.003976
vt 0.903320 0.608701
vt 0.801539 0.608701
vt 0.675375 0.003924
vt 0.777155 0.003925
vt 0.777155 0.018868
vt 0.675375 0.018868
vt 0.792098 0.018868
vt 0.792098 0.623593
vt 0.660431 0.623593
vt 0.660431 0.018868
vt 0.675375 0.623593
vt 0.777155 0.623593
vt 0.777155 0.638536
vt 0.675375 0.638536
vt 0.801539 0.003976
vt 0.903320 0.003976
vt 0.903320 0.608701
vt 0.801539 0.608701
vt 0.675375 0.003924
vt 0.777155 0.003925
vt 0.777155 0.018868
vt 0.675375 0.018868
vt 0.792098 0.018868
vt 0.792098 0.623593
vt 0.660431 0.623593
vt 0.660431 0.018868
vt 0.143663 0.005524
vt 0.227719 0.005524
vt 0.227719 0.020467
vt 0.143664 0.020468
vt 0.227722 0.968112
vt 0.143666 0.968111
vt 0.227722 0.983056
vt 0.143665 0.983055
vt 0.566359 0.004628
vt 0.650412 0.004628
vt 0.650412 0.952238
vt 0.566359 0.952238
vt 0.242663 0.020467
vt 0.242665 0.968112
vt 0.128722 0.968111
vt 0.128736 0.020467
vt 0.268409 0.005524
vt 0.352466 0.005524
vt 0.352465 0.020467
vt 0.268410 0.020468
vt 0.352468 0.968112
vt 0.268412 0.968111
vt 0.352469 0.983056
vt 0.268412 0.983055
vt 0.472288 0.004628
vt 0.556340 0.004628
vt 0.556340 0.952238
vt 0.472287 0.952238
vt 0.367409 0.020467
vt 0.367412 0.968112
vt 0.253469 0.968111
vt 0.253482 0.020467
g pallets:pallet_object
usemtl pallets:pallet_material
f 1/1/1 2/2/2 4/3/4 3/4/3 
f 3/4/3 4/3/4 6/5/6 5/6/5 
f 5/6/5 6/5/6 8/7/8 7/8/7 
f 7/9/7 8/10/8 2/11/2 1/12/1 
f 2/13/2 8/14/8 6/5/6 4/3/4 
f 7/15/7 1/16/1 3/4/3 5/6/5 
f 9/17/9 10/18/10 12/19/12 11/20/11 
f 11/21/11 12/22/12 14/23/14 13/24/13 
f 13/25/13 14/26/14 16/27/16 15/28/15 
f 15/28/15 16/27/16 10/18/10 9/17/9 
f 10/18/10 16/27/16 14/29/14 12/30/12 
f 15/28/15 9/17/9 11/31/11 13/32/13 
f 17/33/17 18/34/18 20/35/20 19/36/19 
f 19/37/19 20/38/20 22/39/22 21/40/21 
f 21/41/21 22/42/22 24/43/24 23/44/23 
f 23/45/23 24/46/24 18/47/18 17/48/17 
f 18/34/18 24/49/24 22/50/22 20/35/20 
f 23/44/23 17/33/17 19/36/19 21/41/21 
f 25/51/25 26/52/26 28/53/28 27/54/27 
f 27/54/27 28/53/28 30/55/30 29/56/29 
f 29/56/29 30/55/30 32/57/32 31/58/31 
f 31/59/31 32/60/32 26/61/26 25/62/25 
f 26/63/26 32/64/32 30/55/30 28/53/28 
f 31/65/31 25/66/25 27/54/27 29/56/29 
f 33/67/33 34/68/34 36/69/36 35/70/35 
f 35/70/35 36/69/36 38/71/38 37/72/37 
f 37/72/37 38/71/38 40/73/40 39/74/39 
f 39/75/39 40/76/40 34/77/34 33/78/33 
f 34/79/34 40/80/40 38/71/38 36/69/36 
f 39/81/39 33/82/33 35/70/35 37/72/37 
f 41/83/41 42/84/42 44/85/44 43/86/43 
f 43/87/43 44/88/44 46/89/46 45/90/45 
f 45/91/45 46/92/46 48/93/48 47/94/47 
f 47/95/47 48/96/48 42/97/42 41/98/41 
f 42/84/42 48/99/48 46/100/46 44/85/44 
f 47/94/47 41/83/41 43/86/43 45/91/45 
f 49/101/49 50/102/50 52/103/52 51/104/51 
f 51/105/51 52/106/52 54/107/54 53/108/53 
f 53/109/53 54/110/54 56/111/56 55/112/55 
f 55/113/55 56/114/56 50/115/50 49/116/49 
f 50/102/50 56/117/56 54/118/54 52/103/52 
f 55/112/55 49/101/49 51/104/51 53/109/53 
f 57/119/57 58/120/58 60/121/60 59/122/59 
f 59/123/59 60/124/60 62/125/62 61/126/61 
f 61/127/61 62/128/62 64/129/64 63/130/63 
f 63/131/63 64/132/64 58/133/58 57/134/57 
f 58/120/58 64/135/64 62/136/62 60/121/60 
f 63/130/63 57/119/57 59/122/59 61/127/61 
f 65/137/65 66/138/66 68/139/68 67/140/67 
f 67/141/67 68/142/68 70/143/70 69/144/69 
f 69/145/69 70/146/70 72/147/72 71/148/71 
f 71/148/71 72/147/72 66/138/66 65/137/65 
f 66/138/66 72/147/72 70/149/70 68/150/68 
f 71/148/71 65/137/65 67/151/67 69/152/69 
f 73/153/73 74/154/74 76/155/76 75/156/75 
f 75/157/75 76/158/76 78/159/78 77/160/77 
f 77/161/77 78/162/78 80/163/80 79/164/79 
f 79/165/79 80/166/80 74/167/74 73/168/73 
f 74/154/74 80/169/80 78/170/78 76/155/76 
f 79/164/79 73/153/73 75/156/75 77/161/77 
f 81/171/81 82/172/82 84/173/84 83/174/83 
f 83/175/83 84/176/84 86/177/86 85/178/85 
f 85/179/85 86/180/86 88/181/88 87/182/87 
f 87/183/87 88/184/88 82/185/82 81/186/81 
f 82/172/82 88/187/88 86/188/86 84/173/84 
f 87/182/87 81/171/81 83/174/83 85/179/85 
f 89/189/89 90/190/90 92/191/92 91/192/91 
f 91/193/91 92/194/92 94/195/94 93/196/93 
f 93/197/93 94/198/94 96/199/96 95/200/95 
f 95/201/95 96/202/96 90/203/90 89/204/89 
f 90/190/90 96/205/96 94/206/94 92/191/92 
f 95/200/95 89/189/89 91/192/91 93/197/93 
f 97/207/97 98/208/98 100/209/100 99/210/99 
f 99/211/99 100/212/100 102/213/102 101/214/101 
f 101/215/101 102/216/102 104/217/104 103/218/103 
f 103/218/103 104/217/104 98/208/98 97/207/97 
f 98/208/98 104/217/104 102/219/102 100/220/100 
f 103/218/103 97/207/97 99/221/99 101/222/101 
f 105/223/105 106/224/106 108/225/108 107/226/107 
f 107/227/107 108/228/108 110/229/110 109/230/109 
f 109/231/109 110/232/110 112/233/112 111/234/111 
f 111/235/111 112/236/112 106/237/106 105/238/105 
f 106/224/106 112/239/112 110/240/110 108/225/108 
f 111/234/111 105/223/105 107/226/107 109/231/109 
f 113/241/113 114/242/114 116/243/116 115/244/115 
f 115/245/115 116/246/116 118/247/118 117/248/117 
f 117/249/117 118/250/118 120/251/120 119/252/119 
f 119/253/119 120/254/120 114/255/114 113/256/113 
f 114/242/114 120/257/120 118/258/118 116/243/116 
f 119/252/119 113/241/113 115/244/115 117/249/117 
f 121/259/121 122/260/122 124/261/124 123/262/123 
f 123/263/123 124/264/124 126/265/126 125/266/125 
f 125/267/125 126/268/126 128/269/128 127/270/127 
f 127/270/127 128/269/128 122/260/122 121/259/121 
f 122/260/122 128/269/128 126/271/126 124/272/124 
f 127/270/127 121/259/121 123/273/123 125/274/125 
f 129/275/129 130/276/130 132/277/132 131/278/131 
f 131/279/131 132/280/132 134/281/134 133/282/133 
f 133/283/133 134/284/134 136/285/136 135/286/135 
f 135/286/135 136/285/136 130/276/130 129/275/129 
f 130/276/130 136/285/136 134/287/134 132/288/132 
f 135/286/135 129/275/129 131/289/131 133/290/133 
f 137/291/137 138/292/138 140/293/140 139/294/139 
f 139/295/139 140/296/140 142/297/142 141/298/141 
f 141/299/141 142/300/142 144/301/144 143/302/143 
f 143/302/143 144/301/144 138/292/138 137/291/137 
f 138/292/138 144/301/144 142/303/142 140/304/140 
f 143/302/143 137/291/137 139/305/139 141/306/141 
f 145/307/145 146/308/146 148/309/148 147/310/147 
f 147/310/147 148/309/148 150/311/150 149/312/149 
f 149/312/149 150/311/150 152/313/152 151/314/151 
f 151/315/151 152/316/152 146/317/146 145/318/145 
f 146/319/146 152/320/152 150/311/150 148/309/148 
f 151/321/151 145/322/145 147/310/147 149/312/149 
f 153/323/153 154/324/154 156/325/156 155/326/155 
f 155/326/155 156/325/156 158/327/158 157/328/157 
f 157/328/157 158/327/158 160/329/160 159/330/159 
f 159/331/159 160/332/160 154/333/154 153/334/153 
f 154/335/154 160/336/160 158/327/158 156/325/156 
f 159/337/159 153/338/153 155/326/155 157/328/157 
