# ProBuilder 5.0.7
# https://unity3d.com/unity/features/worldbuilding/probuilder
# 04.12.2024 15:39:55

mtllib ./HouseModel02WallRoof.mtl
o HouseModel02WallRoof

g HouseModel02WallRoof
v -6.009633 3.005024 -0.201862
v -5.989503 4.376365 -3.364984
v -6.000975 3.016355 -5.689487
v -5.989511 5.78125 -2.995291
v -6.000982 3.022193 -6.163802
v -6.00964 3.013153 0.1678309

vt -0.353231 -0.101982
vt -3.761253 0.4192727
vt -5.663057 -1.487613
vt 0.4983898 0.4373738
vt 0.9935802 0.0100525
vt 0.007888496 0.00422734
vt -3.76124 1.872017
vt -6.12327 -1.602559
vt -5.663085 -1.487495
vt 6.122394 -1.605908
vt -0.002257263 -0.0001767421
vt 5.662282 -1.490559
vt 0.3531389 -0.1023162
vt 0.002223063 -5.068543E-08
vt -3.761249 1.871998

vn -0.9999372 0.01109181 -0.001554718
vn 0.9999828 -0.005718536 0.001359216
vn -0.9999882 -0.001242928 0.004702665
vn -0.9999772 0.0034964 0.002409557
vn -0.9999661 0.008235727 0.0001164492
vn 0.9920236 0.1260432 0.001536463
vn 0.994965 0.0306917 0.001488686
vn 0.9979063 -0.06465978 0.00144091
vn -0.999975 0.007071961 -0.0001747623
vn -0.9999788 0.004285106 -0.002944482
vn -0.9999825 0.001498252 -0.005714202

usemtl ProBuilderDefault
f 2/2/1 3/3/1 1/1/1
f 5/8/4 3/9/5 2/2/4
f 2/2/4 4/7/3 5/8/4
f 4/15/10 2/2/11 1/1/10
f 1/1/10 6/14/9 4/15/10

usemtl Wall
f 6/6/2 5/5/2 4/4/2
f 6/11/7 1/13/8 3/12/7
f 3/12/7 5/10/6 6/11/7

