# Blender 3.4.1
# www.blender.org
mtllib wall.mtl
o Cube
v -250.000000 -150.000000 14.999950
v -250.000000 150.000000 15.000050
v 250.000000 -150.000000 14.999950
v 250.000000 150.000000 15.000050
v 250.000000 -150.000000 -15.000050
v 250.000000 150.000000 -14.999950
v -250.000000 -150.000000 -15.000050
v -250.000000 150.000000 -14.999950
vn -0.0000 -0.0000 1.0000
vn 1.0000 -0.0000 -0.0000
vn -0.0000 -1.0000 -0.0000
vn -1.0000 -0.0000 -0.0000
vn -0.0000 1.0000 -0.0000
vt 0.078360 0.489192
vt 0.077965 0.424576
vt 0.999385 0.489192
vt 0.078360 0.935999
vt 0.999385 0.935999
vt 0.077965 0.333985
vt 0.823039 0.489192
vt 0.915697 0.041154
vt 0.822645 0.424576
vt 0.823039 0.935999
vt 0.915697 0.487962
vt 0.822645 0.333985
vt 0.960377 0.041154
vt 0.822645 0.379895
vt 0.960377 0.487962
vt 0.822645 0.378665
vt 0.077965 0.379895
vt 0.954704 0.489192
vt 0.954704 0.935999
vt 0.077965 0.378665
s 0
usemtl default
f 3/7/1 4/10/1 2/4/1 1/1/1
f 5/13/2 6/15/2 4/11/2 3/8/2
f 5/14/3 3/9/3 1/2/3 7/17/3
f 1/3/4 2/5/4 8/19/4 7/18/4
f 4/12/5 6/16/5 8/20/5 2/6/5
